#!OML:ASF F:\VICON\USERDATA\INSTALL\rory3\rory3.ASF
:FULLY-SPECIFIED
:DEGREES
3477
root 0.75996 14.738 -16.6362 -535.275 -40.8676 532.198
lowerback 18.8472 -2.1789 -8.19372
upperback -0.350441 -4.41929 4.10198
thorax -10.04 -1.61303 10.4909
lowerneck -13.9866 -4.97676 -3.29985
upperneck 19.765 -6.05467 -2.57771
head 8.48607 -3.53431 -1.03301
rclavicle 1.49287e-013 -1.59028e-015
rhumerus 6.83594 44.9287 -67.6511
rradius 102.824
rwrist 24.8248
rhand -24.7997 32.0968
rfingers 7.12502
rthumb 1.70504 2.12389
lclavicle 1.49287e-013 -1.59028e-015
lhumerus 36.0555 -53.1279 62.0896
lradius 52.762
lwrist 70.5565
lhand 4.63034 29.2296
lfingers 7.12502
lthumb 30.0173 56.8138
rfemur -36.2978 -25.3596 11.2482
rtibia 67.6489
rfoot -25.1101 -6.50901
rtoes -18.157
lfemur -21.8864 19.3905 -1.21303
ltibia 41.7771
lfoot -6.68417 15.302
ltoes 10.6882
3478
root 0.732364 14.7364 -16.6071 -535.171 -40.6783 532.162
lowerback 18.7159 -2.08773 -8.25938
upperback -0.348847 -4.29896 4.13177
thorax -9.98553 -1.55528 10.5222
lowerneck -14.1765 -5.06959 -3.71
upperneck 19.8703 -6.1284 -2.34347
head 8.57962 -3.57459 -0.906697
rclavicle 2.62396e-014 6.52014e-014
rhumerus 6.69362 44.7624 -67.7328
rradius 102.628
rwrist 24.8302
rhand -24.6991 32.2885
rfingers 7.12502
rthumb 1.80219 2.31634
lclavicle 2.62396e-014 6.52014e-014
lhumerus 36.4554 -53.102 61.8623
lradius 52.7726
lwrist 70.6175
lhand 4.48036 28.9133
lfingers 7.12502
lthumb 29.8742 56.5233
rfemur -36.4491 -25.3059 11.1
rtibia 67.6182
rfoot -25.0114 -6.52333
rtoes -19.1332
lfemur -22.088 19.6907 -1.39856
ltibia 42.0873
lfoot -5.99568 15.3938
ltoes 5.4933
3479
root 0.710185 14.7343 -16.5878 -535.415 -40.4399 532.455
lowerback 18.7261 -2.01723 -8.21746
upperback -0.348218 -4.1934 4.18186
thorax -10.0146 -1.50402 10.5318
lowerneck -14.2374 -5.08675 -3.86295
upperneck 20.0012 -6.15341 -2.18077
head 8.64645 -3.58342 -0.8363
rclavicle -6.48038e-014 -5.725e-014
rhumerus 6.14825 44.675 -68.3368
rradius 102.49
rwrist 25.0074
rhand -24.439 32.4378
rfingers 7.12502
rthumb 2.05339 2.46792
lclavicle -6.48038e-014 -5.725e-014
lhumerus 36.5307 -53.0602 61.6996
lradius 52.7653
lwrist 70.7788
lhand 4.61649 28.2088
lfingers 7.12502
lthumb 30.0041 55.7954
rfemur -36.4315 -25.083 11.2458
rtibia 67.5544
rfoot -24.8911 -6.54368
rtoes -19.04
lfemur -22.105 20.3615 -1.15009
ltibia 42.3998
lfoot -5.27865 15.1605
ltoes 0.488682
3480
root 0.690732 14.7302 -16.572 -535.744 -40.297 532.793
lowerback 18.6538 -1.94829 -8.27795
upperback -0.237073 -4.10574 4.28192
thorax -9.85767 -1.47605 10.6478
lowerneck -14.1574 -5.05627 -3.74428
upperneck 19.9321 -6.13777 -2.1939
head 8.60325 -3.56742 -0.853435
rclavicle -1.0635e-013 4.29375e-014
rhumerus 6.00291 44.7356 -68.469
rradius 102.383
rwrist 25.0907
rhand -24.1891 32.4215
rfingers 7.12502
rthumb 2.29476 2.45409
lclavicle -1.0635e-013 4.29375e-014
lhumerus 36.8754 -52.9469 61.329
lradius 52.849
lwrist 70.7127
lhand 4.78399 28.4412
lfingers 7.12502
lthumb 30.1639 55.9987
rfemur -36.3258 -24.8592 11.4111
rtibia 67.4758
rfoot -24.7329 -6.61767
rtoes -18.5835
lfemur -22.1624 21.1436 -0.863782
ltibia 42.7552
lfoot -4.88923 14.851
ltoes -1.71436
3481
root 0.665881 14.7366 -16.5463 -535.742 -40.2652 532.846
lowerback 18.4513 -1.92272 -8.44148
upperback -0.124806 -4.08828 4.36686
thorax -9.6043 -1.48412 10.8107
lowerneck -13.9924 -5.06836 -3.54951
upperneck 19.5794 -6.15637 -2.36564
head 8.44088 -3.57124 -0.929211
rclavicle 6.2816e-014 -3.18055e-014
rhumerus 6.35805 44.9089 -68.0699
rradius 102.231
rwrist 24.8973
rhand -24.189 32.3324
rfingers 7.12502
rthumb 2.29487 2.36503
lclavicle 6.2816e-014 -3.18055e-014
lhumerus 37.1903 -52.7044 61.1353
lradius 52.9406
lwrist 70.5986
lhand 4.52343 28.4608
lfingers 7.12502
lthumb 29.9153 56.0633
rfemur -36.3479 -24.8068 11.2919
rtibia 67.3728
rfoot -24.5678 -6.43095
rtoes -17.8108
lfemur -22.3873 21.4526 -0.96348
ltibia 43.0685
lfoot -5.19551 14.7101
ltoes -0.482945
3482
root 0.637207 14.7387 -16.5151 -535.679 -40.1744 532.871
lowerback 18.4505 -1.95557 -8.36213
upperback -0.194936 -4.11582 4.31848
thorax -9.68491 -1.49153 10.719
lowerneck -13.8157 -5.06859 -3.47449
upperneck 19.4675 -6.17943 -2.3812
head 8.36786 -3.57751 -0.940522
rclavicle 1.00386e-013 9.54166e-015
rhumerus 6.26623 45.1002 -68.1753
rradius 102.115
rwrist 24.8335
rhand -24.1965 32.1058
rfingers 7.12502
rthumb 2.28756 2.13835
lclavicle 1.00386e-013 9.54166e-015
lhumerus 37.2226 -52.5675 61.0436
lradius 52.919
lwrist 70.5989
lhand 4.22386 27.6382
lfingers 7.12502
lthumb 29.6294 55.2919
rfemur -36.4697 -24.8466 11.1292
rtibia 67.2937
rfoot -24.352 -6.11673
rtoes -17.4194
lfemur -22.6327 21.5718 -1.13169
ltibia 43.3487
lfoot -5.23204 14.727
ltoes -1.002
3483
root 0.61285 14.7389 -16.495 -535.753 -40.081 532.873
lowerback 18.6591 -1.97302 -8.38807
upperback -0.312347 -4.16279 4.25157
thorax -9.92699 -1.48792 10.6969
lowerneck -13.7616 -5.05619 -3.64374
upperneck 19.6881 -6.19553 -2.12442
head 8.44743 -3.57837 -0.834484
rclavicle -4.7112e-014 -5.56597e-014
rhumerus 5.84156 45.3028 -68.6538
rradius 101.917
rwrist 24.8184
rhand -24.2404 32.0044
rfingers 7.12502
rthumb 2.2452 2.03652
lclavicle -4.7112e-014 -5.56597e-014
lhumerus 37.0306 -52.5113 61.0832
lradius 52.8902
lwrist 70.4076
lhand 3.75788 26.7351
lfingers 7.12502
lthumb 29.1845 54.467
rfemur -36.3874 -24.7877 10.9541
rtibia 67.2239
rfoot -24.225 -6.17177
rtoes -17.9491
lfemur -22.6889 21.7407 -1.22725
ltibia 43.5975
lfoot -5.14468 14.6676
ltoes -2.42324
